<svg xmlns="http://www.w3.org/2000/svg" fill="currentColor" viewBox="0 0 1200 1200">
  <path d="M1061.7 335.63c27.141-5.156 48.469-28.312 49.922-57 1.922-33.844-24.141-62.906-57.938-64.781-16.312-.703-32.156 4.688-44.391 15.609-12.234 11.062-19.453 26.062-20.391 42.469-1.219 21.844 9.234 41.719 25.875 53.391l-30.703 132c-18.469-4.453-37.781-5.766-56.391-4.547l-15-125.02c3.234-1.922 6.234-4.219 9.14-6.703 12.235-10.922 19.454-26.062 20.298-42.375.937-16.453-4.547-32.156-15.61-44.391-10.921-12.234-26.061-19.453-42.374-20.391-16.312-.703-32.156 4.688-44.391 15.609-12.234 11.062-19.453 26.062-20.391 42.469-.844 16.453 4.687 32.156 15.609 44.391 8.297 9.14 18.609 15.469 30.234 18.375l15.234 127.22c-.844.094-1.547.469-2.391.703-15.609 5.625-30.375 13.453-43.922 23.156-49.219-147-191.16-244.69-364.45-238.45-212.06 7.735-378.52 178.74-371.06 381.19 2.063 56.391 15.938 106.45 40.219 147.47 2.297 3.844 4.547 7.688 7.078 11.297-28.688 13.078-54.938 34.453-57.375 74.766-4.922 81.375 85.22 97.781 119.06 104.06 81.844 15 167.06 20.156 249.14 20.156 83.156 0 162.84-5.297 232.08-11.156 102-8.765 181.31-26.625 242.29-54.938 50.156-23.297 96.703-71.53 121.31-125.9 22.922-50.53 37.312-106.92 40.453-158.76 2.063-32.53 0-93.469-36.469-136.31-7.922-9.234-17.062-16.922-27.234-23.297l32.578-140.26-.047-.047zm-590.26-40.312c162-6.375 288.84 86.391 323.63 227.16v.14c2.625 10.454 4.688 21.095 6.234 32.157 1.688 11.39 2.625 23.062 3.141 34.922.14 3.937.234 8.062.234 12.094-.234 33.844-5.859 73.219-14.766 99.938-3.609 11.297-8.062 22.547-12.938 33.375l-3.609 8.156c-2.297 5.062-4.313 9.844-6.703 14.53-27.61.704-96 1.923-156.94 2.907 14.859-31.922 21.469-67.219 18.375-100.22-.844-9.703-2.531-19.219-5.156-28.453-20.766-74.297-96-121.55-171.37-108.23-35.391 6.375-66.141 25.453-84.234 52.219-21.234 31.312-23.625 73.078-5.86 103.69 6.47 11.531 21.234 15.469 32.766 8.86 11.391-6.61 15.375-21.235 8.766-32.767-8.531-14.859-6.844-36.609 4.078-52.78 10.922-16.22 30.234-27.845 53.062-31.923 51.234-9.234 102.47 23.297 116.62 73.922 3.234 11.531 4.547 23.766 4.078 36.47-1.078 30.608-12.703 62.765-32.53 88.687-1.923 2.625-4.079 5.157-6.235 7.688-1.547 1.922-3.235 3.703-5.063 5.531-1.219 1.219-2.156 2.531-3 3.938l-.14.14c-30.141 29.156-64.078 46.078-113.06 56.625-53.766 11.625-110.53 5.297-159.94-18-10.078-4.687-19.453-10.312-28.312-16.78-7.922-5.532-15.375-11.86-21.938-18.704-6.375-6.094-12.141-12.703-17.391-19.78-28.22-37.22-44.531-86.626-46.688-143.86-6.563-176.16 139.22-324.79 324.89-331.64zm573.47 337.18c-2.766 45.469-15.938 97.219-36.234 141.94-20.156 44.297-57.609 83.391-97.922 102.14-55.781 25.922-129.71 42.469-225.94 50.625-134.63 11.391-309.47 20.766-468.61-8.297-59.156-10.78-81.469-25.922-79.781-54C137.501 845.218 152.97 835 177.814 826c18.141 17.766 39.141 32.391 62.625 43.453 39.703 18.703 83.391 28.22 127.31 28.22 21.234 0 42.375-2.157 63.234-6.704 58.219-12.469 100.55-34.219 137.39-70.219.703-.61 2.39-2.156 9.844-11.391l.234-.234c18.47-.235 57-.844 95.625-1.547 26.86-.469 53.625-.938 73.688-1.313 46.453-.937 46.453-.937 53.391-12.094 6.844-10.688 11.531-21.234 16.078-31.547l3.375-7.687c5.625-12.375 10.688-25.22 14.86-38.156 11.624-35.391 18.468-87.094 16.921-128.86-.61-17.531-2.531-34.547-5.39-51.141 11.766-10.781 24.938-19.688 39.234-25.922 2.625-1.078 5.296-2.156 7.921-3.094 11.625-4.219 25.312-6.703 39.141-7.313 13.312-.609 27 .61 39.844 3.704h.141c17.156 4.218 32.766 11.859 43.781 23.53.938.844 1.781 1.782 2.625 2.766 18.75 21.797 27.844 59.11 25.22 102.05z"/>
</svg>
